<svg xmlns="http://www.w3.org/2000/svg" id="Layer_1" data-name="Layer 1" viewBox="0 0 595.28 297.89"><defs><style>.cls-1{fill:#e65d4f;}.cls-2{fill:#3283c3;}.cls-3{fill:#77439a;}</style></defs><title>LOGO MIRAWAY_ver2</title><path class="cls-1" d="M457.47,111.83a11.41,11.41,0,0,0-10.41,20.27,10.77,10.77,0,0,0,1.65.78l27.44,11.5c2.44,1,5.85-.73,7.82-4.15a8.59,8.59,0,0,0,1-6.92,4.11,4.11,0,0,0-1.25-1.83l-.14-.1L460,113.43c-.24-.19-.47-.37-.72-.55s-.55-.37-.85-.54-.66-.36-1-.51m-2,6.22,23.67,15.24a3.63,3.63,0,1,1-3.74,6.16l-.05,0-24.9-12.8h0l-.17-.09a5,5,0,0,1,5-8.6l.16.1h0l0,0"></path><path class="cls-2" d="M446.09,167a11.4,11.4,0,0,0,12.34,19.15,10.89,10.89,0,0,0,1.51-1l23.68-18c2.12-1.6,2.29-5.43.32-8.84a8.55,8.55,0,0,0-5.48-4.35,4,4,0,0,0-2.21.16l-.16.07-27.33,11.45c-.28.11-.56.22-.83.35a9.51,9.51,0,0,0-.9.46,10.09,10.09,0,0,0-.94.61m4.39,4.85,25-12.88a3.63,3.63,0,1,1,3.46,6.31l-.05,0-23.54,15.16h0l-.17.1a5,5,0,0,1-5-8.6l.17-.09h0l0,0"></path><path class="cls-3" d="M488,204.4a11.4,11.4,0,0,0,22.75-1.11,11.11,11.11,0,0,0-.14-1.83L506.88,172h0c-.32-2.63-3.55-4.7-7.49-4.7a8.64,8.64,0,0,0-6.52,2.57,4.23,4.23,0,0,0-1,2l0,.17-3.75,29.4a8.65,8.65,0,0,0-.11.89c0,.33,0,.67,0,1s0,.74.06,1.11m6.39-1.37,1.36-28.12a3.63,3.63,0,1,1,7.2.16v.07l1.36,28h0a1.33,1.33,0,0,1,0,.2,5,5,0,0,1-9.93,0c0-.06,0-.13,0-.2V203"></path><path class="cls-1" d="M541.39,186.79a11.41,11.41,0,0,0,10.42-20.27,10.88,10.88,0,0,0-1.66-.78l-27.44-11.5h0c-2.44-1-5.84.73-7.81,4.14a8.61,8.61,0,0,0-1,6.93,4.19,4.19,0,0,0,1.25,1.83l.14.11,23.58,17.94q.34.28.72.54a8.24,8.24,0,0,0,.85.55,9.25,9.25,0,0,0,1,.51m2-6.23-23.67-15.23a3.63,3.63,0,1,1,3.73-6.15l.06,0L548.42,172h0l.16.09a5,5,0,1,1-5,8.6l-.16-.1h0l0,0a.05.05,0,0,1,0,0"></path><path class="cls-2" d="M552.82,131.77a11.41,11.41,0,0,0-12.35-19.15,12.06,12.06,0,0,0-1.5,1l-23.69,18c-2.11,1.59-2.28,5.42-.32,8.83a8.64,8.64,0,0,0,5.49,4.36,4.1,4.1,0,0,0,2.21-.17l.16-.07,27.33-11.45a8.58,8.58,0,0,0,.83-.35c.3-.14.6-.29.9-.46s.64-.39.94-.6m-4.39-4.85-25,12.87a3.86,3.86,0,0,1-5.26-1.11,3.91,3.91,0,0,1,1.8-5.2l.06,0,23.53-15.16h0l.16-.1a5,5,0,0,1,5,8.6l-.17.09,0,0,0,0"></path><path class="cls-3" d="M510.88,94.36a11.4,11.4,0,0,0-22.75,1.11,12.32,12.32,0,0,0,.14,1.83L492,126.82h0c.32,2.63,3.55,4.69,7.49,4.69a8.58,8.58,0,0,0,6.51-2.57,4.12,4.12,0,0,0,1-2l0-.17,3.74-29.39c.05-.3.09-.59.12-.89s0-.67,0-1,0-.74-.05-1.11m-6.4,1.37-1.35,28.12a3.63,3.63,0,1,1-7.2-.15v0l-1.37-28h0a1.34,1.34,0,0,1,0-.2,5,5,0,0,1,9.92,0v.2h0v0s0,0,0,0"></path><path class="cls-2" d="M44,120.57H55.46l11.61,43.89,11.27-43.89H95.88v57.62H84.78V131.67L73,178.19H61L49.19,131.67v46.52H38.09V126.76A6.11,6.11,0,0,1,44,120.57"></path><path class="cls-2" d="M107.49,126.76c0-4.07,2-6.19,5.94-6.19h5.84V178.2H107.49Z"></path><path class="cls-2" d="M168.4,150.57a10.51,10.51,0,0,1,5.5,4c1,1.95,1.53,4.83,1.78,8.56l.51,11.27a4.65,4.65,0,0,0,1.87,3.81h-13a8.48,8.48,0,0,1-.93-3.47c-.26-.85-.42-4.15-.51-9.75-.42-6.95-1.7-9.15-8.64-9.15H142.46v22.37H130.69V126.76a6.11,6.11,0,0,1,5.93-6.19h21.86c12,0,18.56,4.58,18.56,16.44,0,7.29-3.14,12-8.64,13.56m-11.36-20H142.46v15.17h13.9c5.59,0,8.73-2,8.73-7.63,0-5.25-2.79-7.54-8.05-7.54"></path><path class="cls-2" d="M220.59,120.57l20.68,57.62H228.81L225,166.41H202.71l-3.81,11.78H186.27l19.23-53.81q1.27-3.81,5.6-3.81Zm-14.74,36.1h15.84l-8-24.49Z"></path><path class="cls-2" d="M316.18,120.57l-16.35,57.62H288.55L279.66,134l-9,44.15H259.32l-16.44-57.62h12.28l9.75,40.59,8.47-40.59h12.55l8.3,40.59,8.73-36.1c1-3,3-4.49,5.93-4.49Z"></path><path class="cls-2" d="M351.14,120.57l20.67,57.62H359.36l-3.82-11.78H333.25l-3.81,11.78H316.82l19.23-53.81q1.27-3.81,5.59-3.81Zm-14.75,36.1h15.85l-8-24.49Z"></path><path class="cls-2" d="M390.81,178.19V156.67L370,120.57h14.41l12.45,24.83L406.58,124a5.63,5.63,0,0,1,5.42-3.47h9.66l-18.9,36.1v21.52Z"></path><path class="cls-3" d="M47.23,205.27a7.45,7.45,0,0,1-2.92.49c-4,0-6-2.47-6-5.75,0-3.9,2.79-6.06,6.25-6.06a6.73,6.73,0,0,1,2.82.51l-.54,2a5.76,5.76,0,0,0-2.18-.42,3.77,3.77,0,0,0,0,7.54,6.17,6.17,0,0,0,2.17-.37Z"></path><path class="cls-3" d="M60.15,194.3a20.81,20.81,0,0,1,3.45-.25,5.66,5.66,0,0,1,3.7.92,2.85,2.85,0,0,1,1.07,2.39,3,3,0,0,1-2,2.8v.05a2.87,2.87,0,0,1,1.53,2.12c.36,1.31.7,2.81.92,3.25H66.15a15.49,15.49,0,0,1-.79-2.67c-.32-1.44-.81-1.81-1.88-1.83h-.76v4.5H60.15Zm2.57,4.91h1c1.29,0,2.05-.64,2.05-1.64s-.71-1.59-1.9-1.59a5.08,5.08,0,0,0-1.17.09Z"></path><polygon class="cls-3" points="88.25 200.74 84.03 200.74 84.03 203.46 88.74 203.46 88.74 205.58 81.45 205.58 81.45 194.13 88.5 194.13 88.5 196.26 84.03 196.26 84.03 198.63 88.25 198.63 88.25 200.74"></polygon><path class="cls-3" d="M104.36,202.64l-.79,2.94h-2.69l3.5-11.45h3.38l3.57,11.45h-2.79l-.88-2.94Zm2.91-1.94-.71-2.42c-.19-.68-.4-1.55-.57-2.21h0c-.15.68-.33,1.55-.5,2.21l-.7,2.42Z"></path><polygon class="cls-3" points="124.76 196.31 121.67 196.31 121.67 194.13 130.47 194.13 130.47 196.31 127.34 196.31 127.34 205.58 124.76 205.58 124.76 196.31"></polygon><rect class="cls-3" x="143.07" y="194.13" width="2.58" height="11.44"></rect><path class="cls-3" d="M161.81,205.58l-3.67-11.45H161l1.4,4.84c.39,1.38.74,2.67,1,4.1h.05c.29-1.38.64-2.74,1-4l1.46-4.9h2.76l-3.86,11.45Z"></path><polygon class="cls-3" points="187.93 200.74 183.72 200.74 183.72 203.46 188.42 203.46 188.42 205.58 181.14 205.58 181.14 194.13 188.18 194.13 188.18 196.26 183.72 196.26 183.72 198.63 187.93 198.63 187.93 200.74"></polygon><polygon class="cls-3" points="217.6 196.31 214.51 196.31 214.51 194.13 223.31 194.13 223.31 196.31 220.18 196.31 220.18 205.58 217.6 205.58 217.6 196.31"></polygon><polygon class="cls-3" points="242.71 200.74 238.49 200.74 238.49 203.46 243.2 203.46 243.2 205.58 235.91 205.58 235.91 194.13 242.96 194.13 242.96 196.26 238.49 196.26 238.49 198.63 242.71 198.63 242.71 200.74"></polygon><path class="cls-3" d="M264.56,205.27a7.41,7.41,0,0,1-2.92.49c-3.95,0-6-2.47-6-5.75,0-3.9,2.79-6.06,6.25-6.06a6.73,6.73,0,0,1,2.82.51l-.55,2a5.66,5.66,0,0,0-2.17-.42,3.77,3.77,0,0,0,0,7.54,6.21,6.21,0,0,0,2.17-.37Z"></path><polygon class="cls-3" points="280.09 194.13 280.09 198.55 284.35 198.55 284.35 194.13 286.94 194.13 286.94 205.58 284.35 205.58 284.35 200.81 280.09 200.81 280.09 205.58 277.51 205.58 277.51 194.13 280.09 194.13"></polygon><path class="cls-3" d="M300.41,205.58V194.13h3l2.37,4.2a35.19,35.19,0,0,1,1.87,3.92h0a45.19,45.19,0,0,1-.21-4.79v-3.33h2.38v11.45h-2.72l-2.44-4.41a43.44,43.44,0,0,1-2-4h-.06c.08,1.53.11,3.14.11,5v3.45Z"></path><path class="cls-3" d="M328.19,205.77c-3.38,0-5.38-2.57-5.38-5.83,0-3.43,2.21-6,5.57-6s5.43,2.63,5.43,5.79c0,3.77-2.26,6-5.6,6Zm.12-2.06c1.75,0,2.75-1.65,2.75-3.89,0-2-1-3.82-2.75-3.82s-2.78,1.73-2.78,3.87,1,3.84,2.76,3.84Z"></path><polygon class="cls-3" points="346.74 194.13 349.32 194.13 349.32 203.4 353.87 203.4 353.87 205.58 346.74 205.58 346.74 194.13"></polygon><path class="cls-3" d="M370.82,205.77c-3.38,0-5.38-2.57-5.38-5.83,0-3.43,2.21-6,5.57-6s5.43,2.63,5.43,5.79c0,3.77-2.25,6-5.6,6Zm.12-2.06c1.75,0,2.75-1.65,2.75-3.89,0-2-1-3.82-2.75-3.82s-2.78,1.73-2.78,3.87,1,3.84,2.77,3.84Z"></path><path class="cls-3" d="M398.92,205.05a12.56,12.56,0,0,1-3.83.65,6.47,6.47,0,0,1-4.65-1.53,5.76,5.76,0,0,1-1.61-4.18c0-3.8,2.78-6,6.53-6a8.15,8.15,0,0,1,3.18.54l-.54,2.09a6,6,0,0,0-2.65-.5,3.73,3.73,0,0,0-.19,7.46,4.19,4.19,0,0,0,1.26-.15v-2.41h-1.77v-2h4.27Z"></path><path class="cls-3" d="M414.8,205.58v-4.69l-3.62-6.76h3l1.16,2.76c.35.83.6,1.44.88,2.19h0c.26-.72.53-1.38.87-2.19l1.15-2.76h2.91l-3.77,6.68v4.77Z"></path></svg>